<svg width="981" height="234" viewBox="0 0 981 234" fill="none" xmlns="http://www.w3.org/2000/svg">
<path d="M0.639999 3.19998V1.19998H-1.36V3.19998H0.639999ZM110.12 3.19998H112.12V1.19998H110.12V3.19998ZM110.12 38.2V40.2H112.12V38.2H110.12ZM46.84 38.2V36.2H44.84V38.2H46.84ZM46.84 98.68H44.84V100.68H46.84V98.68ZM107.88 114.36L106.527 115.833L107.88 114.36ZM116 204.52L114.297 203.472L114.291 203.481L116 204.52ZM91.64 224.4L90.9673 222.516L90.9565 222.52L91.64 224.4ZM0.639999 230H-1.36V232H0.639999V230ZM75.68 191.36L77.2255 192.629L75.68 191.36ZM75.96 139.56L74.329 140.717L74.338 140.73L74.3472 140.743L75.96 139.56ZM46.84 130.88V128.88H44.84V130.88H46.84ZM46.84 199.2H44.84V201.2H46.84V199.2ZM0.639999 5.19998L110.12 5.19998V1.19998L0.639999 1.19998V5.19998ZM108.12 3.19998L108.12 38.2H112.12V3.19998H108.12ZM110.12 36.2L46.84 36.2V40.2L110.12 40.2V36.2ZM44.84 38.2L44.84 98.68H48.84V38.2H44.84ZM46.84 100.68H56.64V96.68H46.84V100.68ZM56.64 100.68C79.1454 100.68 95.6515 105.849 106.527 115.833L109.233 112.887C97.3352 101.965 79.6813 96.68 56.64 96.68V100.68ZM106.527 115.833C117.339 125.759 122.96 141.719 122.96 164.2H126.96C126.96 141.134 121.194 123.868 109.233 112.887L106.527 115.833ZM122.96 164.2C122.96 181.178 120.001 194.202 114.297 203.472L117.703 205.568C123.945 195.425 126.96 181.569 126.96 164.2H122.96ZM114.291 203.481C108.742 212.611 100.987 218.938 90.9673 222.517L92.3127 226.283C103.2 222.395 111.685 215.469 117.709 205.559L114.291 203.481ZM90.9565 222.52C80.9753 226.15 68.5299 228 53.56 228V232C68.8301 232 81.7714 230.117 92.3235 226.28L90.9565 222.52ZM53.56 228H0.639999V232H53.56V228ZM2.64 230L2.64 3.19998H-1.36L-1.36 230H2.64ZM53.84 201.2C64.3905 201.2 72.3897 198.517 77.2255 192.629L74.1346 190.091C70.3837 194.657 63.8229 197.2 53.84 197.2V201.2ZM77.2255 192.629C81.9751 186.847 84.12 177.384 84.12 164.76H80.12C80.12 177.149 77.9716 185.419 74.1346 190.091L77.2255 192.629ZM84.12 164.76C84.12 153.375 82.0432 144.473 77.5728 138.377L74.3472 140.743C78.0901 145.847 80.12 153.745 80.12 164.76H84.12ZM77.591 138.402C72.9372 131.845 64.5721 128.88 53.28 128.88V132.88C64.0145 132.88 70.7695 135.702 74.329 140.717L77.591 138.402ZM53.28 128.88H46.84V132.88H53.28V128.88ZM44.84 130.88L44.84 199.2H48.84V130.88H44.84ZM46.84 201.2H53.84V197.2H46.84V201.2ZM151.564 3.19998V1.19998H149.564V3.19998H151.564ZM250.404 3.19998H252.404V1.19998H250.404V3.19998ZM250.404 35.12V37.12H252.404V35.12H250.404ZM197.484 35.12V33.12H195.484V35.12H197.484ZM197.484 95.32H195.484V97.32H197.484V95.32ZM238.364 95.32H240.364V93.32H238.364V95.32ZM238.364 127.52V129.52H240.364V127.52H238.364ZM197.484 127.52V125.52H195.484V127.52H197.484ZM197.484 198.64H195.484V200.64H197.484V198.64ZM250.964 198.64H252.964V196.64H250.964V198.64ZM250.964 230V232H252.964V230H250.964ZM151.564 230H149.564V232H151.564V230ZM151.564 5.19998L250.404 5.19998V1.19998L151.564 1.19998V5.19998ZM248.404 3.19998V35.12H252.404V3.19998H248.404ZM250.404 33.12L197.484 33.12V37.12L250.404 37.12V33.12ZM195.484 35.12V95.32H199.484V35.12H195.484ZM197.484 97.32H238.364V93.32H197.484V97.32ZM236.364 95.32V127.52H240.364V95.32H236.364ZM238.364 125.52H197.484V129.52H238.364V125.52ZM195.484 127.52L195.484 198.64H199.484L199.484 127.52H195.484ZM197.484 200.64H250.964V196.64H197.484V200.64ZM248.964 198.64V230H252.964V198.64H248.964ZM250.964 228L151.564 228V232L250.964 232V228ZM153.564 230L153.564 3.19998H149.564L149.564 230H153.564ZM274.611 3.19998V1.19998H272.611V3.19998H274.611ZM388.571 117.44L389.867 118.964L389.874 118.958L389.881 118.951L388.571 117.44ZM320.531 131.72V129.72H318.531V131.72H320.531ZM320.531 230V232H322.531V230H320.531ZM274.611 230H272.611V232H274.611V230ZM356.931 92.24L358.554 93.4086L356.931 92.24ZM360.291 49.68L358.351 50.1651L358.353 50.175L358.356 50.1848L360.291 49.68ZM353.011 39.32L351.882 40.9706L351.901 40.984L351.921 40.9969L353.011 39.32ZM320.531 35.68V33.68H318.531V35.68H320.531ZM320.531 99.24H318.531V101.24H320.531V99.24ZM274.611 5.19998L346.571 5.19998V1.19998L274.611 1.19998V5.19998ZM346.571 5.19998C365.806 5.19998 379.882 10.5258 389.186 20.849C398.525 31.2116 403.371 46.9532 403.371 68.44H407.371C407.371 46.4334 402.417 29.555 392.157 18.171C381.861 6.74746 366.536 1.19998 346.571 1.19998V5.19998ZM403.371 68.44C403.371 91.1378 397.829 106.77 387.261 115.929L389.881 118.951C401.713 108.697 407.371 91.6622 407.371 68.44H403.371ZM387.276 115.916C376.549 125.034 361.481 129.72 341.811 129.72V133.72C362.089 133.72 378.193 128.886 389.867 118.964L387.276 115.916ZM341.811 129.72H320.531V133.72H341.811V129.72ZM318.531 131.72V230H322.531V131.72H318.531ZM320.531 228H274.611V232H320.531V228ZM276.611 230L276.611 3.19998H272.611L272.611 230H276.611ZM337.051 101.24C347.132 101.24 354.614 98.881 358.554 93.4086L355.308 91.0714C352.528 94.9323 346.757 97.24 337.051 97.24V101.24ZM358.554 93.4086C362.309 88.1942 363.971 79.4184 363.971 67.6H359.971C359.971 79.3016 358.274 86.9525 355.308 91.0714L358.554 93.4086ZM363.971 67.6C363.971 59.8802 363.41 53.7102 362.227 49.1751L358.356 50.1848C359.413 54.2364 359.971 60.0131 359.971 67.6H363.971ZM362.232 49.1949C360.994 44.2445 358.276 40.3564 354.101 37.6431L351.921 40.9969C355.214 43.1369 357.349 46.1554 358.351 50.1651L362.232 49.1949ZM354.141 37.6694C350.102 34.906 344.204 33.68 336.771 33.68V37.68C343.898 37.68 348.827 38.8807 351.882 40.9706L354.141 37.6694ZM336.771 33.68H320.531V37.68H336.771V33.68ZM318.531 35.68L318.531 99.24H322.531L322.531 35.68H318.531ZM320.531 101.24H337.051V97.24H320.531V101.24ZM428.83 3.19998V1.19998H426.83V3.19998H428.83ZM527.67 3.19998H529.67V1.19998H527.67V3.19998ZM527.67 35.12V37.12H529.67V35.12H527.67ZM474.75 35.12V33.12H472.75V35.12H474.75ZM474.75 95.32H472.75V97.32H474.75V95.32ZM515.63 95.32H517.63V93.32H515.63V95.32ZM515.63 127.52V129.52H517.63V127.52H515.63ZM474.75 127.52V125.52H472.75V127.52H474.75ZM474.75 198.64H472.75V200.64H474.75V198.64ZM528.23 198.64H530.23V196.64H528.23V198.64ZM528.23 230V232H530.23V230H528.23ZM428.83 230H426.83V232H428.83V230ZM428.83 5.19998L527.67 5.19998V1.19998L428.83 1.19998V5.19998ZM525.67 3.19998V35.12H529.67V3.19998H525.67ZM527.67 33.12H474.75V37.12H527.67V33.12ZM472.75 35.12L472.75 95.32H476.75L476.75 35.12H472.75ZM474.75 97.32H515.63V93.32H474.75V97.32ZM513.63 95.32V127.52H517.63V95.32H513.63ZM515.63 125.52H474.75V129.52H515.63V125.52ZM472.75 127.52V198.64H476.75V127.52H472.75ZM474.75 200.64L528.23 200.64V196.64L474.75 196.64V200.64ZM526.23 198.64V230H530.23V198.64H526.23ZM528.23 228L428.83 228V232L528.23 232V228ZM430.83 230L430.83 3.19998H426.83L426.83 230H430.83ZM561.117 216L559.553 217.246L561.117 216ZM546.837 157.48V155.48H544.837V157.48H546.837ZM589.957 157.48H591.957V155.48H589.957V157.48ZM590.237 165.88L592.237 165.847L592.235 165.773L592.229 165.699L590.237 165.88ZM594.157 190.24L592.368 191.134L592.382 191.162L592.396 191.188L594.157 190.24ZM622.437 189.96L624.239 190.828L624.245 190.815L624.251 190.802L622.437 189.96ZM619.917 137.88L621.565 136.747L619.917 137.88ZM597.517 128.36L597.586 126.361L597.551 126.36H597.517V128.36ZM585.757 128.36H583.757V130.36H585.757V128.36ZM585.757 98.96V96.96H583.757V98.96H585.757ZM596.677 98.96V100.96H596.694L596.71 100.96L596.677 98.96ZM619.637 90.28L618.031 89.0883L618.024 89.0973L619.637 90.28ZM621.317 41.84L619.614 42.8882L619.628 42.9115L619.643 42.9345L621.317 41.84ZM591.917 42.12L590.196 41.1004L590.19 41.1104L590.185 41.1206L591.917 42.12ZM587.157 63.12L585.159 63.0384L585.157 63.0792V63.12H587.157ZM587.157 74.6V76.6H589.157V74.6H587.157ZM543.757 74.6H541.757V76.6H543.757V74.6ZM560.557 16.64L561.947 18.078L561.953 18.072L561.959 18.066L560.557 16.64ZM652.117 15.8L650.728 17.2388L650.734 17.2447L650.74 17.2506L652.117 15.8ZM660.517 94.2L662.229 95.2342L662.233 95.2265L662.238 95.2186L660.517 94.2ZM639.797 111L639.282 109.068L633.186 110.693L639.105 112.876L639.797 111ZM654.077 215.44L655.648 216.678L654.077 215.44ZM607.877 231.92C586.566 231.92 571.682 226.049 562.681 214.754L559.553 217.246C569.592 229.845 585.881 235.92 607.877 235.92V231.92ZM562.681 214.754C553.542 203.285 548.837 186.897 548.837 165.32H544.837C544.837 187.423 549.651 204.821 559.553 217.246L562.681 214.754ZM548.837 165.32V157.48H544.837V165.32H548.837ZM546.837 159.48H589.957V155.48H546.837V159.48ZM587.957 157.48C587.957 161.051 588.05 163.92 588.245 166.061L592.229 165.699C592.05 163.733 591.957 161.003 591.957 157.48H587.957ZM588.237 165.913C588.424 177.34 589.727 185.851 592.368 191.134L595.946 189.346C593.734 184.922 592.423 177.193 592.237 165.847L588.237 165.913ZM592.396 191.188C595.451 196.862 601.014 199.52 608.437 199.52V195.52C602.046 195.52 598.089 193.325 595.918 189.292L592.396 191.188ZM608.437 199.52C612.125 199.52 615.367 198.848 618.067 197.39C620.792 195.918 622.853 193.705 624.239 190.828L620.635 189.092C619.594 191.255 618.108 192.822 616.167 193.87C614.2 194.932 611.656 195.52 608.437 195.52V199.52ZM624.251 190.802C626.87 185.162 628.077 176.488 628.077 165.04H624.077C624.077 176.365 622.858 184.305 620.623 189.118L624.251 190.802ZM628.077 165.04C628.077 152.747 626.009 143.211 621.565 136.747L618.269 139.013C622.038 144.496 624.077 153.066 624.077 165.04H628.077ZM621.565 136.747C616.947 130.03 608.72 126.745 597.586 126.361L597.448 130.359C607.967 130.722 614.673 133.783 618.269 139.013L621.565 136.747ZM597.517 126.36H585.757V130.36H597.517V126.36ZM587.757 128.36V98.96H583.757V128.36H587.757ZM585.757 100.96H596.677V96.96H585.757V100.96ZM596.71 100.96C608.151 100.769 616.593 97.8122 621.25 91.4627L618.024 89.0973C614.467 93.9478 607.603 96.7776 596.644 96.9603L596.71 100.96ZM621.243 91.4717C625.915 85.1751 628.077 75.6969 628.077 63.4H624.077C624.077 75.3698 621.946 83.8115 618.031 89.0883L621.243 91.4717ZM628.077 63.4C628.077 53.7164 626.474 46.0719 622.991 40.7455L619.643 42.9345C622.507 47.3147 624.077 54.0436 624.077 63.4H628.077ZM623.02 40.7918C619.588 35.2145 613.907 32.56 606.477 32.56V36.56C612.86 36.56 617.072 38.7588 619.614 42.8882L623.02 40.7918ZM606.477 32.56C599.174 32.56 593.602 35.3532 590.196 41.1004L593.637 43.1396C596.205 38.8068 600.34 36.56 606.477 36.56V32.56ZM590.185 41.1206C587.152 46.3775 585.538 53.7505 585.159 63.0384L589.155 63.2016C589.523 54.1962 591.082 47.5691 593.649 43.1194L590.185 41.1206ZM585.157 63.12V74.6H589.157V63.12H585.157ZM587.157 72.6H543.757V76.6H587.157V72.6ZM545.757 74.6V62.28H541.757V74.6H545.757ZM545.757 62.28C545.757 43.0738 551.232 28.4358 561.947 18.078L559.167 15.202C547.482 26.4975 541.757 42.2861 541.757 62.28H545.757ZM561.959 18.066C572.705 7.49957 587.37 2.11999 606.197 2.11999V-1.88001C586.57 -1.88001 570.809 3.75375 559.155 15.2139L561.959 18.066ZM606.197 2.11999C625.634 2.11999 640.38 7.24759 650.728 17.2388L653.506 14.3612C642.201 3.44572 626.333 -1.88001 606.197 -1.88001V2.11999ZM650.74 17.2506C661.248 27.2244 666.637 41.6605 666.637 60.88H670.637C670.637 40.8995 665.012 25.2822 653.494 14.3494L650.74 17.2506ZM666.637 60.88C666.637 73.6701 663.989 84.4067 658.796 93.1814L662.238 95.2186C667.872 85.7 670.637 74.2232 670.637 60.88H666.637ZM658.805 93.1658C653.601 101.779 647.083 106.987 639.282 109.068L640.312 112.932C649.311 110.533 656.606 104.541 662.229 95.2342L658.805 93.1658ZM639.105 112.876C648.274 116.259 655.101 122.121 659.671 130.507C664.266 138.939 666.637 150.034 666.637 163.92H670.637C670.637 149.62 668.201 137.801 663.183 128.593C658.14 119.339 650.547 112.834 640.489 109.124L639.105 112.876ZM666.637 163.92C666.637 185.676 661.842 202.353 652.506 214.202L655.648 216.678C665.726 203.887 670.637 186.218 670.637 163.92H666.637ZM652.506 214.202C643.299 225.887 628.584 231.92 607.877 231.92V235.92C629.357 235.92 645.441 229.633 655.648 216.678L652.506 214.202ZM696.812 3.19998V1.19998H694.812V3.19998H696.812ZM743.012 3.19998H745.012V1.19998H743.012V3.19998ZM743.012 95.32H741.012V97.32H743.012V95.32ZM749.452 95.32V97.32H750.831L751.321 96.0303L749.452 95.32ZM784.452 3.19998V1.19998H783.072L782.582 2.48965L784.452 3.19998ZM830.092 3.19998L831.953 3.93265L833.029 1.19998H830.092V3.19998ZM788.092 109.88L786.231 109.147L785.951 109.858L786.217 110.575L788.092 109.88ZM832.612 230V232H835.486L834.487 229.305L832.612 230ZM785.292 230L783.406 230.667L783.878 232H785.292V230ZM749.452 128.64L751.337 127.973L750.866 126.64H749.452V128.64ZM743.012 128.64V126.64H741.012V128.64H743.012ZM743.012 230V232H745.012V230H743.012ZM696.812 230H694.812V232H696.812V230ZM696.812 5.19998L743.012 5.19998V1.19998L696.812 1.19998V5.19998ZM741.012 3.19998V95.32H745.012V3.19998H741.012ZM743.012 97.32H749.452V93.32H743.012V97.32ZM751.321 96.0303L786.321 3.91032L782.582 2.48965L747.582 94.6096L751.321 96.0303ZM784.452 5.19998L830.092 5.19998V1.19998L784.452 1.19998V5.19998ZM828.231 2.46732L786.231 109.147L789.953 110.613L831.953 3.93265L828.231 2.46732ZM786.217 110.575L830.737 230.695L834.487 229.305L789.967 109.185L786.217 110.575ZM832.612 228H785.292V232H832.612V228ZM787.177 229.333L751.337 127.973L747.566 129.307L783.406 230.667L787.177 229.333ZM749.452 126.64H743.012V130.64H749.452V126.64ZM741.012 128.64V230H745.012V128.64H741.012ZM743.012 228H696.812V232H743.012V228ZM698.812 230V3.19998H694.812V230H698.812ZM853.218 3.19998V1.19998H851.218V3.19998H853.218ZM890.178 3.19998H892.178V1.19998H890.178V3.19998ZM890.178 139H888.178L892.008 139.807L890.178 139ZM950.098 3.19998V1.19998H948.795L948.268 2.39261L950.098 3.19998ZM980.338 3.19998H982.338V1.19998H980.338V3.19998ZM980.338 230V232H982.338V230H980.338ZM942.818 230H940.818V232H942.818V230ZM942.818 91.96H944.818L940.986 91.1574L942.818 91.96ZM882.338 230V232H883.645L884.17 230.803L882.338 230ZM853.218 230H851.218V232H853.218V230ZM853.218 5.19998H890.178V1.19998H853.218V5.19998ZM888.178 3.19998V139H892.178V3.19998H888.178ZM892.008 139.807L951.928 4.00735L948.268 2.39261L888.348 138.193L892.008 139.807ZM950.098 5.19998H980.338V1.19998H950.098V5.19998ZM978.338 3.19998V230H982.338V3.19998H978.338ZM980.338 228H942.818V232H980.338V228ZM944.818 230V91.96H940.818V230H944.818ZM940.986 91.1574L880.506 229.197L884.17 230.803L944.65 92.7626L940.986 91.1574ZM882.338 228L853.218 228V232L882.338 232V228ZM855.218 230V3.19998H851.218V230H855.218Z" fill="url(#paint0_linear_12_406)"/>
<defs>
<linearGradient id="paint0_linear_12_406" x1="490.889" y1="1.69289" x2="490.889" y2="230.176" gradientUnits="userSpaceOnUse">
<stop stop-color="#7FC723" stop-opacity="0.61"/>
<stop offset="0.806278" stop-color="#7FC723" stop-opacity="0"/>
</linearGradient>
</defs>
</svg>
