<svg width="102" height="100" viewBox="0 0 102 100" fill="none" xmlns="http://www.w3.org/2000/svg">
<path d="M5.35872 58.6272L5.98069 59.0373L6.18801 59.2423C6.18801 59.2423 6.39533 59.4474 6.18801 59.4474C6.39533 59.4474 4.94408 60.2676 4.1148 61.2928C3.28552 62.318 2.87088 63.5483 2.66356 64.5735C2.24892 66.829 3.0782 69.4946 4.52944 71.135C5.98069 72.7754 8.26121 73.8006 10.3344 74.0057H11.7857C12.2003 74.0057 12.4076 74.0057 12.6149 74.2107C13.0296 74.4157 13.4442 75.0309 13.4442 75.646C13.6515 77.0813 12.8223 78.7217 12.6149 80.5671C12.6149 81.5924 12.8223 82.6176 13.2369 83.4378C14.4808 85.6933 16.554 87.7437 19.0419 88.1538C19.8711 88.3589 20.7004 88.1538 21.5297 88.1538C22.359 87.9488 22.981 87.5387 23.6029 87.5387C24.8468 87.1286 25.4688 87.3337 25.6761 88.5639C25.8834 89.5892 25.8834 90.8194 26.0908 92.0497C26.0908 93.0749 26.5054 94.3052 27.1274 95.3304C28.3713 97.1759 30.6518 98.8162 33.347 99.2263C34.5909 99.4314 35.4202 99.2263 36.0421 99.0213C36.6641 98.8162 36.8714 98.6112 36.8714 98.6112C36.8714 98.4061 35.6275 99.0213 33.347 98.6112C32.3104 98.4061 30.8591 97.791 29.6152 96.7658C28.3713 95.7405 27.1274 94.1002 27.1274 92.0497C27.1274 91.0245 27.1274 89.7942 26.92 88.5639C26.7127 87.9488 26.5054 87.1286 25.6761 86.5135C24.8468 86.1034 23.8102 86.3084 23.1883 86.5135C22.359 86.7185 21.9443 86.9236 21.3224 87.1286C20.7004 87.3336 20.0785 87.3336 19.4565 87.1286C18.2126 86.9236 16.9687 86.1034 16.1394 85.0781C15.3101 84.0529 14.4808 82.6176 14.4808 81.3873C14.4808 79.952 15.5174 78.3116 15.3101 76.2612C15.3101 75.2359 14.6881 73.8006 13.4442 73.1855C12.8223 72.9804 12.2003 72.7754 11.5783 72.7754C10.9564 72.7754 10.7491 72.7754 10.3344 72.7754C9.29781 71.7501 7.63925 70.93 6.39533 69.6997C5.1514 68.4694 4.73676 66.624 4.94408 64.9836C5.1514 64.1634 5.56605 63.3433 5.98069 62.7281C6.18801 62.318 6.60265 62.113 7.01729 61.9079L7.84657 61.2928C8.26121 61.0877 8.67585 60.6777 8.88317 60.2676C9.29781 59.6524 9.09049 58.6272 8.46853 58.0121C8.05389 57.602 7.63925 57.3969 7.43193 57.1919L6.60265 56.7818C5.77337 56.3717 4.94408 55.7565 4.32212 54.9364C2.87088 53.501 2.24892 51.4506 2.66356 49.6052C2.87088 47.7598 4.73676 46.5295 6.60265 44.6841C7.43193 43.8639 8.46853 42.4286 8.46853 40.7882C8.67585 39.1478 8.05389 37.9175 7.84657 36.6873C7.63925 35.457 7.43193 34.4318 7.43193 33.6116C7.63925 32.5863 8.05389 31.7662 8.88317 31.151C9.71245 30.5359 10.7491 30.1258 11.993 29.5107C13.2369 28.8955 14.6881 28.0753 15.7247 26.64C16.7613 24.9996 16.554 23.3593 16.554 21.9239C16.3467 20.4886 16.3467 19.4634 16.7613 18.8483C17.5906 17.4129 20.4931 16.3877 22.359 16.7978C22.981 17.0028 23.6029 17.2079 24.6395 17.2079C25.0542 17.2079 25.8834 17.2079 26.5054 16.7978C27.1274 16.5927 27.542 15.7726 27.7493 15.3625C28.5786 13.9272 28.7859 12.2868 29.2006 11.2616C29.6152 10.0313 30.2372 9.21109 31.0664 8.59595C32.1031 7.98081 33.1397 7.36568 34.3836 7.36568C35.6275 7.16063 36.6641 7.36568 37.908 7.77577C38.53 7.98081 39.1519 8.39091 39.9812 8.59595C40.8105 8.801 42.0544 9.00605 43.091 8.59595C45.1642 7.77577 46.2008 6.34045 47.0301 5.31522C47.8594 4.08494 48.6887 3.4698 49.7253 3.26476C50.7619 3.05971 52.0058 3.05971 53.0424 3.67485C53.6644 3.87989 54.079 4.28999 54.4937 4.49503C54.9083 4.90512 55.3229 5.52026 55.7376 6.1354C56.1522 6.75054 56.5669 7.36568 57.1888 8.18586C57.6035 8.59595 57.8108 8.801 58.4327 9.21109C58.8474 9.41614 59.6767 9.62118 60.2986 9.62118C62.5791 9.41614 63.8231 8.18586 64.8597 7.77577C65.8963 7.36568 67.3475 7.36568 68.5914 7.57072C69.2134 7.77577 69.8354 7.98081 70.0427 8.18586C70.0427 8.18586 70.25 8.59595 70.6646 9.00605C71.0793 10.0313 71.2866 11.6716 72.3232 13.312C72.7378 14.1322 73.7744 14.9524 74.3964 15.3625C74.8111 15.5675 75.2257 15.9776 75.8476 15.9776H76.8843C76.8843 15.9776 77.2989 15.9776 77.5062 15.7726C79.9941 15.1574 82.6892 15.7726 84.5551 17.2079C86.421 18.6432 87.2503 21.3088 87.043 23.7694C87.043 24.3845 86.8356 24.9996 86.6283 25.6148C86.6283 25.8198 86.421 26.0249 86.421 26.2299C86.2137 27.0501 86.421 28.0753 87.2503 28.8955C87.6649 29.3056 88.2869 29.7157 88.7015 29.9207L89.7381 30.1258C90.3601 30.3308 90.7747 30.5359 91.3967 30.946C93.2626 32.1762 94.5065 34.4318 94.2992 36.6873C94.2992 37.3024 94.0919 37.7125 93.8845 38.3276C93.6772 38.9428 93.4699 39.3529 93.0552 39.763C92.6406 40.3781 92.226 40.5831 91.8113 41.8134C91.604 42.4285 91.604 43.0437 91.8113 43.6588C92.0186 44.274 92.6406 44.6841 92.8479 45.0941C94.0919 46.1194 95.5431 46.5295 96.5797 47.1446C97.6163 47.7597 98.0309 48.3749 98.4456 49.1951C98.6529 50.2203 98.6529 51.2455 98.2383 52.0657C97.8236 52.8859 96.9943 53.9111 96.3724 54.5263C95.9577 54.7313 95.3358 55.1414 94.7138 55.5515C94.0919 55.9616 93.2626 56.5767 92.8479 57.602C92.6406 58.0121 92.6406 58.6272 92.6406 59.0373C92.6406 59.4474 92.8479 60.0625 93.2626 60.4726C93.8845 61.2928 94.5065 61.7029 94.7138 61.9079C96.1651 63.3433 96.787 65.3937 96.3724 67.4442C95.9577 69.2896 94.2992 70.93 92.4333 71.5451C91.604 71.9552 90.3601 71.9552 88.9088 72.7754C88.2869 73.1855 87.4576 74.0056 87.4576 75.0309C87.2503 75.8511 87.4576 76.6712 87.6649 77.0813C88.2869 79.1318 88.2869 80.9772 87.2503 82.6176C86.421 84.2579 84.5551 85.2832 82.8965 85.6933C81.8599 85.8983 81.0307 86.1034 80.2014 85.8983C79.1648 85.8983 78.1282 85.6933 76.8843 86.1034C76.2623 86.3084 75.6403 86.9235 75.2257 87.3336C74.8111 87.9488 74.6037 88.3589 74.6037 88.974C74.3964 89.7942 73.9818 90.4093 73.5671 91.2295C72.5305 92.4598 71.0793 93.485 69.628 93.6901C68.7988 93.8951 67.9695 93.8951 67.3475 93.6901C66.5182 93.485 65.689 93.485 65.2743 93.0749C64.6524 92.6648 64.0304 92.0497 63.2011 91.6396C62.1645 91.0245 60.9206 91.0245 60.0913 91.6396C59.0547 92.2547 58.8474 93.28 58.4328 93.8951C58.0181 94.5102 57.8108 95.1254 57.3961 95.7405C56.5669 96.7657 55.5303 97.5859 54.2863 97.996C52.0058 99.0212 49.518 98.4061 47.6521 97.3809C47.2374 97.1758 46.8228 96.7657 46.4082 96.5607C46.2008 96.3557 45.7862 95.7405 45.5789 95.5355C44.9569 94.7153 44.5423 93.8951 43.713 93.28C42.6764 92.6648 41.6398 93.0749 41.0178 93.485C40.3959 93.8951 39.9812 94.5102 39.7739 95.1254C39.152 96.1506 38.7373 96.7657 38.3227 97.1758C37.908 97.5859 37.7007 97.791 37.7007 97.791C37.7007 97.791 38.1154 97.791 38.53 97.3809C38.9446 96.9708 39.5666 96.3556 40.3959 95.3304C40.8105 94.9203 41.2252 94.3052 41.6398 94.1001C42.0544 93.69 42.8837 93.69 43.2984 93.8951C43.713 94.3052 44.335 95.1254 44.7496 95.9456C44.9569 96.3557 45.1642 96.7657 45.7862 97.3809C46.2008 97.791 46.6155 98.2011 47.2374 98.4061C49.1033 99.6364 52.0058 100.457 54.9083 99.4313C56.3596 99.0212 57.6035 97.996 58.6401 96.7657C59.6767 95.5355 60.0913 93.6901 60.9206 93.0749C61.3352 92.8699 61.9572 92.8699 62.3718 93.0749C62.9938 93.485 63.6158 93.8951 64.445 94.5102C64.8597 94.7153 65.4816 95.1254 65.8963 95.1254C66.3109 95.3304 66.7256 95.3304 67.3475 95.3304C68.3841 95.5355 69.2134 95.5355 70.25 95.3304C72.3232 94.9203 74.1891 93.8951 75.433 92.2547C76.055 91.4345 76.6769 90.4093 76.8843 89.3841C77.0916 88.5639 77.5062 87.9488 77.9209 87.9488C78.5428 87.7437 79.5794 87.9488 80.616 87.9488C81.6526 87.9488 82.8966 87.9488 83.9332 87.5387C86.2137 86.9235 88.4942 85.6933 89.7381 83.6428C91.1894 81.3873 91.1894 78.7217 90.5674 76.4662C90.3601 75.851 90.3601 75.4409 90.3601 75.2359C90.3601 75.0309 90.5674 74.8258 90.7747 74.6208C91.3967 74.2107 92.4333 74.2107 93.8845 73.5955C96.3724 72.7754 98.8602 70.7249 99.4822 67.8542C100.311 64.9836 99.2749 61.9079 97.2017 59.8574C96.5797 59.4474 96.1651 59.0373 95.9578 58.8322C95.9578 58.6272 95.9578 58.6272 95.9578 58.6272C95.9578 58.4221 95.9578 58.4221 95.9578 58.2171C95.9578 58.012 96.3724 57.807 96.787 57.3969C97.2017 57.1918 97.8236 56.7818 98.4456 56.3717C99.6895 55.3464 100.726 54.3212 101.348 52.8859C101.97 51.4506 102.177 49.8102 101.763 48.1698C101.555 47.3496 101.141 46.5295 100.519 45.9143C99.8969 45.2992 99.2749 44.684 98.6529 44.479C97.409 43.8638 96.1651 43.2487 95.3358 42.6336C94.2992 43.0437 94.2992 43.0437 94.2992 43.0437C94.2992 43.0437 94.9211 42.2235 95.3358 41.6084C95.7504 40.9932 96.165 40.173 96.3724 39.5579C96.5797 38.7377 96.787 38.1226 96.9943 37.3024C97.409 34.0217 95.7504 30.7409 92.8479 28.8955C92.226 28.4854 91.3967 28.0753 90.5674 27.8703L89.5308 27.4602C89.5308 27.4602 89.3235 27.4602 89.3235 27.2551V27.0501C89.3235 27.0501 89.3235 27.0501 89.3235 26.845C89.3235 26.64 89.7381 25.6148 89.9454 24.1794C90.1527 20.8987 89.1161 17.4129 86.421 15.1574C83.7258 12.9019 79.9941 12.2868 76.8843 13.107C76.6769 13.107 76.4696 13.107 76.4696 13.107C76.4696 13.107 76.2623 13.107 76.055 12.9019C75.433 12.4918 75.2257 12.2868 75.0184 11.8767C74.3964 11.0565 74.1891 9.41613 73.5671 7.77576C72.9452 7.16063 72.3232 6.1354 71.4939 5.52026C70.6646 4.90512 69.8354 4.70008 68.7988 4.49503C67.1402 4.08494 65.2743 4.08494 63.4084 4.70008C61.5425 5.31522 60.5059 6.34045 59.6767 6.34045C59.4693 6.54549 58.4327 5.52026 57.6035 4.28999C57.1888 3.67485 56.7742 3.05971 56.1522 2.23953C55.3229 1.41934 54.4937 1.00925 53.8717 0.804205C50.9692 -0.426072 47.8594 -0.0159798 45.9935 1.62439C45.1642 2.23953 44.7496 2.85467 44.335 3.4698C43.9203 4.08494 43.5057 4.49503 43.091 4.90513C42.6764 5.31522 42.2618 5.72531 41.8471 5.72531C41.2252 5.93036 40.1885 5.52026 38.53 4.90513C37.0787 4.49503 35.2129 4.08494 33.5543 4.28999C31.8957 4.49503 30.2372 5.11017 28.9932 6.1354C27.542 7.16063 26.5054 8.801 26.0908 10.2363C25.6761 11.6716 25.4688 12.9019 24.8468 13.9272C24.6395 14.3372 24.6395 14.3372 24.6395 14.3372C24.6395 14.3372 24.6395 14.3372 24.4322 14.3372C24.0176 14.3372 23.3956 14.1322 22.7736 13.9272C22.359 13.9272 21.9444 13.7221 21.5297 13.7221C21.1151 13.7221 20.7004 13.7221 20.2858 13.7221C19.4565 13.7221 18.6272 13.9272 18.0053 14.1322C16.554 14.7473 15.1028 15.5675 14.0662 17.2079C13.2369 18.8483 13.4442 20.6937 13.6515 21.9239C13.8589 23.1542 13.6515 24.1795 13.2369 24.9996C12.8223 25.8198 11.993 26.2299 10.7491 26.8451C9.71245 27.4602 8.26121 27.8703 7.01729 28.8955C5.77336 29.9207 5.1514 31.3561 4.73676 32.9964C4.52944 34.6368 4.73676 36.0721 5.1514 37.3024C5.56604 38.5327 5.77336 39.5579 5.77336 40.5831C5.77336 41.4033 5.35872 42.2235 4.52944 43.0437C3.70016 43.8639 2.87088 44.6841 2.0416 45.5042C1.21232 46.5295 0.383035 47.7598 0.175715 49.1951C-0.238926 52.0657 0.797676 54.7313 2.66356 56.5767C3.49284 57.3969 4.32212 58.0121 5.35872 58.6272Z" fill="#7FC723"/>
<path d="M48.274 82.8227C48.274 83.0277 49.7252 83.6429 52.6277 84.053C55.5302 84.4631 59.8839 84.4631 65.0669 82.8227C70.0426 80.9773 75.6402 77.6965 80.6159 72.7754C85.5916 67.8543 89.3234 60.4727 89.738 52.2708C90.1527 44.069 87.4575 36.4823 83.1038 30.741C81.0306 27.8704 78.5427 25.6148 76.0549 23.7694C73.567 21.924 70.8719 20.4887 68.384 19.6685C65.8962 18.8483 63.4083 18.4382 61.3351 18.4382C59.2619 18.4382 57.396 18.6433 55.9448 19.0534H55.7375C53.457 18.8483 51.1764 18.6433 48.6886 18.8483C43.2983 19.4635 37.9079 21.3089 32.9322 24.7947C27.9566 28.2804 23.8101 33.4066 21.5296 39.558C19.4564 45.7094 19.2491 52.6809 20.7003 59.4474C23.6028 72.1603 35.6274 82.2075 48.274 82.8227ZM52.835 82.8227C52.213 82.8227 51.7984 82.8227 51.1764 82.8227C55.3228 82.6176 59.0546 81.3874 62.5791 79.747C62.7864 80.1571 63.201 80.7722 63.6157 81.1823C59.2619 82.6176 55.3228 82.8227 52.835 82.8227ZM69.4206 75.441C69.6279 75.8511 70.2499 76.4663 70.8719 76.6713C71.0792 76.8763 71.2865 76.8763 71.4938 76.8763C69.8353 78.1066 67.9694 78.9268 66.3108 79.747C66.1035 79.3369 65.6889 78.9268 65.2742 78.7218C65.0669 78.5167 64.8596 78.5167 64.6523 78.3117C64.6523 78.3117 64.8596 78.3117 64.8596 78.1066C66.7255 77.4915 68.1767 76.4663 69.4206 75.441ZM73.7744 75.236C73.3597 74.6208 72.5304 74.0057 71.4938 73.5956C73.1524 72.1603 74.811 70.5199 76.0549 68.8796C76.4695 69.2897 76.8842 69.9048 77.5061 70.1098C77.9208 70.3149 78.3354 70.5199 78.7501 70.725C77.0915 72.5704 75.4329 74.0057 73.7744 75.236ZM86.4209 55.1415C86.2136 55.1415 86.0063 54.9364 85.7989 54.9364C84.555 54.5263 83.3111 54.5263 82.6891 54.9364C82.6891 54.5263 82.8965 54.1162 82.8965 53.7061C83.1038 52.2708 83.1038 50.8355 83.1038 49.6052C84.3477 50.2204 85.7989 50.0153 86.8355 49.4002C86.6282 50.0153 86.6282 53.091 86.4209 55.1415ZM82.4818 55.7566C82.6891 56.3717 83.5184 57.1919 84.7623 57.602C85.177 57.8071 85.3843 57.8071 85.7989 57.8071C85.3843 59.4474 84.7623 61.0878 84.1404 62.5231C83.7257 62.113 83.1038 61.7029 82.4818 61.2929C81.8599 61.0878 81.4452 60.8828 80.8233 60.6777C81.2379 59.8575 81.4452 59.0374 81.8599 58.2172C82.0672 57.397 82.2745 56.5768 82.4818 55.7566ZM79.7866 62.9332C80.2013 63.3433 80.4086 63.7534 81.0306 63.9585C81.6525 64.3685 82.4818 64.5736 83.1038 64.5736C82.2745 66.214 81.2379 67.6493 80.2013 68.8796C79.372 68.0594 78.3354 67.4442 77.2988 67.0341C78.3354 65.8039 79.1647 64.3685 79.7866 62.9332ZM83.7257 37.5075C83.1038 37.5075 82.6891 37.5075 82.0672 37.7126C81.4452 37.9176 80.8233 38.1227 80.4086 38.5327C79.994 37.5075 79.372 36.2772 78.7501 34.6369C79.7867 34.6369 80.8233 34.0217 81.4452 32.9965C82.2745 34.4318 83.1038 36.0722 83.7257 37.5075ZM79.7866 31.1511C79.372 31.3561 78.9574 31.5612 78.5427 31.7662C78.1281 32.1763 77.5061 32.5864 77.2988 32.9965C76.4695 31.7662 75.6402 30.741 74.6036 29.5107C75.4329 29.3057 76.0549 28.6905 76.4695 27.8704C77.7134 28.4855 78.75 29.7158 79.7866 31.1511ZM61.1278 19.8736C62.9937 20.0786 65.2742 20.4887 67.5547 21.5139C69.8353 22.5392 72.3231 23.7694 74.3963 25.6148C74.6036 25.6148 74.6036 25.8199 74.811 25.8199C74.6036 26.0249 74.189 26.0249 73.9817 26.23C73.567 26.435 73.3597 26.8451 73.1524 27.2552C69.4206 23.5644 65.0669 21.3089 60.5058 19.8736C60.7132 19.8736 60.9205 19.8736 61.1278 19.8736ZM23.6028 58.6273C22.1516 52.4759 22.3589 45.9144 24.4321 40.3782C28.1639 29.7158 38.5299 22.3341 49.1032 21.1038C54.0789 20.4887 58.64 21.3089 62.5791 22.7442C68.384 24.7947 73.7744 29.1006 77.9208 35.252C78.9574 36.8924 79.5793 38.1227 80.2013 39.1479C80.2013 39.3529 80.2013 39.763 80.6159 39.9681C81.2379 41.1983 81.4452 41.8135 81.4452 41.6084C81.4452 41.6084 81.4452 41.1983 81.2379 40.1731C81.8599 40.3782 82.4818 40.3782 83.1038 40.1731C83.9331 39.9681 84.3477 39.558 84.7623 38.9428C85.5916 41.4034 86.2136 43.8639 86.6282 46.5295C85.5916 46.1194 83.9331 46.3245 82.8965 46.9396C82.6891 45.5043 82.4818 44.274 82.0672 43.4538C81.6525 42.2236 81.4452 41.6084 81.2379 41.6084C81.0306 41.6084 81.8599 44.274 81.8599 48.9901C81.8599 50.2204 81.6525 51.4506 81.4452 52.886C81.2379 54.3213 80.8233 55.7566 80.4086 57.397C79.1647 60.4727 77.2988 63.9585 74.6036 67.2392C71.9085 70.5199 68.384 73.5956 64.0303 76.0562C59.6766 78.3117 54.4936 80.1571 49.1032 79.952C38.1153 79.747 26.298 70.93 23.6028 58.6273Z" fill="#7FC723"/>
<path d="M53.8715 56.1666C62.3716 47.3496 67.5546 38.9428 66.9326 38.5327C66.1034 38.1226 59.8837 45.5042 51.5909 54.3212C50.5543 55.3464 49.5177 56.5767 48.6884 57.1919C47.6518 58.012 46.8226 58.2171 45.786 58.2171C43.7128 58.2171 41.6396 57.1919 40.3956 55.9616C37.7005 53.296 36.2492 51.2455 35.8346 51.4506C35.4199 51.6556 36.4565 53.9111 38.7371 57.1918C40.1883 58.8322 42.4688 60.6776 45.5786 60.8827C47.2372 61.0877 48.8958 60.4726 50.347 59.4474C51.7983 58.4221 52.6275 57.3969 53.8715 56.1666Z" fill="#7FC723"/>
</svg>
