<svg width="121" height="80" viewBox="0 0 121 80" fill="none" xmlns="http://www.w3.org/2000/svg">
<g clip-path="url(#clip0_15_378)">
<path d="M72.513 12.639C73.8366 12.6924 74.8829 12.7796 75.9266 12.7705C82.2031 12.7067 88.4849 12.4176 94.7509 12.6286C98.0612 12.7393 101.364 13.6091 104.631 14.3136C107.091 14.8436 108.798 16.5637 110.116 18.6055C111.347 20.5093 112.471 22.4846 113.591 24.4574C115.657 28.1008 116.617 32.075 116.831 36.212C117.203 43.4312 117.492 50.6542 117.784 57.8773C117.849 59.505 118.085 60.8319 119.352 62.2122C121.178 64.1993 121.109 67.0172 120.886 69.6059C120.763 71.0278 119.533 71.2948 118.201 71.3456C114.865 71.4732 111.532 71.731 108.155 71.9394C105.115 78.7262 99.3599 80.268 92.9683 79.8682C86.9337 79.4893 84.0093 75.2768 82.4072 69.4835C66.0338 70.0369 49.5976 69.1827 32.9287 70.7739C29.9062 76.8706 24.8263 79.2458 18.024 77.9749C12.7101 76.9826 9.87987 73.4564 8.55368 68.4443C6.64155 68.6488 4.83275 68.7517 3.06057 69.059C1.38256 69.3506 0.609603 68.4951 0.218547 67.1214C0.0158251 66.4104 -0.00902461 65.6291 0.000130565 64.8803C0.168847 50.6347 0.395111 36.3878 0.514128 22.1409C0.558596 16.8658 0.366337 11.5895 0.269554 6.31442C0.246012 5.02137 0.141382 3.72963 0.140074 2.43528C0.138766 1.06932 1.24393 0.0966046 2.2013 0.617468C5.11526 2.2022 8.17308 1.51987 11.1197 1.50294C28.2334 1.40267 45.3457 1.13963 62.458 0.864879C64.9299 0.825815 67.4071 0.495065 69.8633 0.163015C71.7898 -0.0961149 72.4895 0.142181 72.7341 2.07589C72.9629 3.87677 72.8217 5.72844 72.7785 7.55537C72.7458 9.14791 72.6177 10.7418 72.513 12.639ZM8.99051 59.8879C9.72554 58.8292 10.6044 57.8409 11.1616 56.695C12.2053 54.5464 13.9081 53.4396 16.176 53.0333C17.8789 52.7299 19.5739 52.3002 21.2898 52.1634C26.779 51.7272 30.7641 54.1844 32.8829 59.1782C33.2138 59.9569 33.5068 60.7499 33.8795 61.6979C45.5406 61.3163 57.0722 60.9413 68.9634 60.552C68.919 55.1988 68.8771 50.2128 68.8326 45.0563C66.6459 44.9182 64.8122 44.676 62.9825 44.706C53.0164 44.8727 43.0491 45.0302 33.0869 45.3388C25.2893 45.581 17.4996 46.0407 9.70723 46.3975C7.56623 46.4952 5.41607 46.5277 3.17698 48.0278C7.33473 47.7999 11.1224 47.5929 14.9087 47.3858C14.9296 47.6111 14.9492 47.8351 14.9688 48.059C14.3803 48.1567 13.7944 48.2648 13.2045 48.3507C10.3154 48.77 7.41451 49.1216 4.53979 49.6242C2.74407 49.9368 2.40532 51.1009 3.07365 52.9226C6.13017 52.8966 9.08991 52.8731 12.0483 52.8484C12.068 53.0359 12.0863 53.2234 12.1046 53.4122C9.09776 53.8992 6.08963 54.3849 2.87093 54.9058C3.00957 56.2626 3.1142 57.2744 3.23452 58.4373C4.88768 58.4985 6.28189 58.5597 7.6774 58.5961C8.58637 58.6222 9.09645 59.0154 9.06506 59.9673C7.15163 59.9842 5.23689 59.9985 3.20706 60.0168C3.21883 61.3853 3.22667 62.3021 3.23583 63.4506C5.00801 63.4349 6.57878 63.4219 8.21755 63.4089C8.48436 62.1979 8.73678 61.0442 8.99051 59.8879ZM2.93894 44.2541C8.81133 44.021 14.2992 43.7541 19.791 43.6017C25.309 43.4481 30.8308 43.4533 36.3501 43.3049C41.8563 43.1577 47.3638 42.9754 52.8647 42.6811C58.2898 42.3907 63.7476 42.4936 69.276 41.9584C69.4173 35.5596 69.5507 29.584 69.6932 23.1696C65.5472 23.2034 61.7897 23.3571 58.0387 23.2451C42.8934 22.7932 27.756 22.8544 12.6238 23.6162C10.0342 23.7477 7.44198 23.9079 4.86153 24.1709C3.18744 24.3428 3.11681 25.3676 3.79037 26.8833C7.26672 26.8547 10.6947 26.826 14.1239 26.7974C14.1305 26.9354 14.1383 27.0747 14.1449 27.2128C10.543 27.6216 6.94106 28.0318 3.21229 28.4563C3.22537 30.084 3.23714 31.4122 3.25022 33.0334C6.99468 33.1024 10.526 33.1662 14.0572 33.23C14.0494 33.3707 14.0402 33.5113 14.0324 33.652C10.4174 34.0218 6.80112 34.3903 3.1979 34.7562C3.20967 36.1729 3.21752 37.1066 3.22537 38.0845C6.82858 38.0546 10.2618 38.0259 13.6963 37.9986C13.7002 38.1145 13.7054 38.2316 13.7107 38.3462C10.2238 38.8814 6.73703 39.4153 3.09196 39.9752C3.04096 41.3855 3.00041 42.5392 2.93894 44.2541ZM3.26722 4.44451C2.92848 6.49411 3.37577 7.3301 5.02501 7.24807C5.99677 7.19989 6.97637 7.29234 7.95074 7.28843C10.3507 7.27931 12.7507 7.25327 15.1506 7.23244C15.1689 7.34442 15.1859 7.45771 15.2043 7.571C11.3015 8.02806 7.39751 8.48512 3.27376 8.96822C3.37839 10.3524 3.45555 11.3642 3.55234 12.6351C6.6821 12.6091 9.54244 12.5856 12.4028 12.5609C12.4211 12.7861 12.4407 13.0114 12.459 13.2341C9.52413 13.5987 6.59055 13.9633 3.37708 14.3618C3.45294 15.5467 3.51441 16.5312 3.58896 17.6992C7.22356 17.5 10.4907 17.319 13.759 17.138C13.78 17.3437 13.7996 17.5494 13.8205 17.7565C10.2892 18.2266 6.75796 18.6993 2.38571 19.2826C3.43986 20.3204 3.83222 21.0457 4.34622 21.146C5.71427 21.413 7.13855 21.5288 8.53537 21.4924C15.7823 21.2997 23.0267 20.9663 30.275 20.8257C37.0969 20.6942 43.9463 20.3764 50.7381 20.827C56.396 21.2007 61.9702 20.9533 67.5718 20.4923C68.2781 20.4337 68.9634 20.1043 69.7469 19.8725C69.7508 14.3657 70.1942 9.02812 69.6684 3.8898C47.3206 4.07731 25.3613 4.25961 3.26722 4.44451ZM77.3326 15.7407C77.2489 17.1536 77.1534 18 77.1547 18.8464C77.1704 31.5776 77.2201 44.3101 77.2122 57.04C77.2096 63.2123 77.4071 61.9205 72.2318 63.2188C72.139 64.2162 72.037 65.3048 71.9428 66.2958C75.5434 66.2671 78.7281 66.2398 81.9298 66.2138C82.1743 65.2567 82.33 64.6381 82.4909 64.0209C84.2277 57.3695 87.1652 53.9813 94.4645 52.3926C101.704 50.8183 109.003 56.0556 109.287 63.8972C109.34 65.3843 109.317 66.8739 109.331 68.5329C112.246 68.8858 114.976 68.8741 117.538 67.7464C118.084 65.3778 117.32 63.8035 115.409 63.1823C114.989 54.7209 114.501 46.5485 114.203 38.3684C113.981 32.2339 111.774 26.8078 108.562 21.7398C106.736 18.8607 104.416 16.4582 100.623 16.2317C99.1245 16.1418 97.6361 15.7381 96.1386 15.7186C91.1556 15.6548 86.1739 15.7004 81.1895 15.7082C80.0111 15.7108 78.8314 15.7277 77.3326 15.7407ZM106.439 64.7579C106.411 59.8371 103.393 56.7158 99.9982 55.4644C95.9633 53.9761 91.8187 54.9227 88.9492 58.0193C84.1689 63.1758 84.1349 69.6814 88.5202 74.9968C89.161 75.7755 90.223 76.2768 91.1778 76.7144C94.2513 78.1233 97.2987 77.0529 100.33 76.4487C102.819 75.9526 104.267 74.2246 104.912 71.9394C105.575 69.589 105.944 67.1552 106.439 64.7579ZM30.7759 65.0053C30.5222 63.4232 30.4999 61.7591 29.9663 60.2759C28.6624 56.6455 25.8687 54.6675 21.9739 54.9357C18.1208 55.2014 14.205 55.5347 12.4172 60.0858C10.0904 66.0145 11.8469 72.2675 17.2132 74.6739C22.3047 76.9579 25.7719 75.8406 28.682 72.0526C30.2815 69.9731 30.6765 67.5719 30.7759 65.0053ZM34.0168 67.2242C45.6701 67.1279 57.1729 67.0315 68.8366 66.9338C68.8248 65.6434 68.8169 64.6407 68.8078 63.405C67.9694 63.4128 67.3377 63.4063 66.706 63.4245C57.0892 63.7136 47.471 63.9949 37.8542 64.31C36.8916 64.3412 35.9263 64.5444 34.9794 64.7436C33.6794 65.0184 33.614 65.9182 34.0168 67.2242ZM72.7301 59.772C72.9839 59.8032 73.2402 59.8358 73.4952 59.867C73.7477 59.3344 74.1636 58.8201 74.2237 58.2667C74.4317 56.3408 74.6253 54.4032 74.6318 52.4708C74.6606 42.8856 74.6409 33.2991 74.6082 23.7139C74.6017 21.5601 74.5193 19.4011 74.3938 17.25C74.3336 16.2395 73.8418 15.6366 72.411 16.2877C72.4228 30.0267 70.9658 43.8518 72.2031 57.7094C72.2658 58.406 72.5483 59.0844 72.7301 59.772ZM8.29864 66.2046C8.22017 65.7215 8.17047 65.1395 8.11815 65.1395C6.63371 65.1317 5.14926 65.1824 3.66482 65.2228C3.67397 65.3895 3.68313 65.5562 3.69228 65.7228C5.13749 65.8739 6.58401 66.0249 8.29864 66.2046Z" fill="#7FC723"/>
<path d="M81.6983 31.0893C81.6708 27.8626 81.6616 24.6372 81.6132 21.4117C81.5675 18.4011 82.0645 17.8334 85.0988 17.8724C90.2819 17.9414 95.4716 17.9558 100.643 18.254C102.015 18.3347 103.62 19.0626 104.624 20.0132C110.298 25.3742 112.218 32.2925 112.354 39.8268C112.407 42.8322 111.902 43.3375 108.744 43.4403C105.504 43.5445 102.253 43.5666 99.0172 43.4156C93.9466 43.1799 88.8903 42.7176 83.8353 43.6877C82.1822 44.0042 81.6721 43.3921 81.6407 41.4064C81.5884 37.9674 81.5766 34.5284 81.5479 31.0893C81.5989 31.0907 81.6486 31.0893 81.6983 31.0893ZM109.773 40.1094C109.763 38.9309 109.809 37.9817 109.739 37.0415C109.372 32.0777 107.558 27.7493 104.442 23.8025C102.947 21.9091 101.343 20.9599 99.046 20.8583C96.0196 20.7229 92.9944 20.538 89.968 20.3999C88.1474 20.3179 86.3412 20.3622 84.8882 21.1435C84.7561 24.5408 84.5246 27.6543 84.5481 30.7664C84.573 33.9189 84.2866 37.117 85.0634 40.6732C93.2848 39.5495 101.262 41.823 109.773 40.1094Z" fill="#7FC723"/>
<path d="M86.3789 45.745C86.7268 46.5771 87.0773 47.4144 87.4671 48.3481C85.7001 49.2413 84.0679 48.7856 82.5233 48.6723C82.1034 48.6423 81.5489 47.6097 81.4639 46.9821C81.4181 46.6383 82.1806 45.9039 82.6541 45.831C83.8115 45.6513 85.0135 45.7555 86.3789 45.745Z" fill="#7FC723"/>
<path d="M96.0615 69.6594C94.5627 69.7739 93.4968 69.0239 92.7957 67.3975C92.1993 66.0146 92.7068 65.0822 93.5988 64.228C95.2193 62.6798 99.5287 63.9416 100.129 66.1005C100.686 68.0968 99.0618 69.6034 96.0615 69.6594Z" fill="#7FC723"/>
<path d="M20.8804 68.999C18.6858 69.0147 17.65 67.9625 17.5466 65.6147C17.4669 63.793 19.1684 62.3658 21.4598 62.3359C23.4112 62.3085 24.7518 63.6198 24.6903 65.4949C24.6197 67.5601 23.0711 68.9834 20.8804 68.999Z" fill="#7FC723"/>
</g>
<defs>
<clipPath id="clip0_15_378">
<rect width="121" height="80" fill="white"/>
</clipPath>
</defs>
</svg>
