<svg width="103" height="99" viewBox="0 0 103 99" fill="none" xmlns="http://www.w3.org/2000/svg">
<g clip-path="url(#clip0_15_371)">
<path d="M95.6747 41.4465C95.0507 38.1028 96.7146 34.3412 96.7146 30.7885C96.7146 28.9077 96.2986 27.0269 95.6747 25.3551C94.2187 22.0114 91.9308 19.7126 89.435 17.8318C86.9391 16.16 84.2352 15.1151 81.7393 14.4881C79.4514 13.8612 77.1635 13.0253 75.4996 12.1894C71.9637 10.7265 70.0918 8.00976 68.8439 6.33793C67.3879 4.66609 66.556 4.03915 66.556 4.03915C66.556 4.03915 67.18 4.87507 68.4279 6.75589C69.6758 8.42772 71.3398 11.5624 75.2916 13.4432C77.1635 14.4881 79.4514 15.1151 81.7393 15.951C84.0272 16.7869 86.5231 17.6228 88.811 19.2947C93.1788 22.6383 95.2587 27.0269 95.0507 30.7885C95.0507 32.4604 94.6347 34.1322 94.2187 36.013C93.8027 37.8938 93.3868 39.7747 93.8027 42.0734C94.0107 44.1632 95.2587 46.253 96.2986 47.9249C98.3785 51.2685 100.25 54.8212 100.25 59.0008C100.25 60.8816 99.8345 62.9714 98.7945 64.6432C97.7546 66.3151 96.2986 67.5689 94.2187 68.6138C92.3468 69.6587 89.6429 70.4947 87.979 73.0024C85.0671 77.391 86.9391 83.2424 85.4831 87.631C84.8592 89.7208 83.1952 91.1836 81.3233 92.2285C79.2434 93.2734 76.9555 93.4824 74.6676 93.0645C72.3797 92.6465 70.0918 91.8106 67.5959 90.7657C65.308 89.7208 62.6042 88.4669 59.2763 88.4669C57.6124 88.4669 56.1565 89.0939 54.7005 89.7208C53.4526 90.3477 52.2046 91.3926 51.1647 92.2285C48.8768 93.9004 47.0049 95.3632 44.509 95.9902C42.2211 96.6171 39.5172 96.6171 37.2293 95.5722C34.9414 94.7363 33.4855 92.6465 32.4455 90.3477C31.1976 88.049 30.1576 85.1232 27.8697 82.8245C26.8298 81.7796 25.1659 80.9436 23.7099 80.5257C22.254 80.1077 20.7981 80.1077 19.3421 80.1077C16.6383 80.1077 14.5583 79.6898 12.8944 78.2269C11.2305 76.7641 10.1905 74.4653 9.77457 72.3755C9.56658 71.1216 9.56658 70.0767 9.56658 68.8228C9.77457 67.569 9.77457 66.3151 9.98256 65.0612C10.1905 62.5534 10.6065 59.8367 9.77457 57.12C9.35859 55.8661 8.73461 54.4032 7.90265 53.3583C7.07069 52.3134 6.23873 51.2685 5.40676 50.4326C3.74284 48.5518 2.4949 47.089 2.4949 44.9992C2.4949 43.9543 2.70289 43.1183 3.11887 42.0734C4.36681 38.7298 6.65471 37.8939 9.77457 36.222C11.8545 35.1771 13.9344 33.9232 15.3903 31.8334C16.8462 29.9526 17.4702 27.4449 17.6782 25.3551C17.8862 23.2653 17.8862 21.1755 17.8862 19.2947C17.8862 18.2498 18.0942 17.4139 18.3022 16.5779C18.5102 15.742 18.9262 15.1151 19.5501 14.4881C20.5901 13.2343 22.046 12.1894 23.7099 11.3535C26.8298 9.89059 30.1576 9.26365 33.2775 9.89059C36.3974 10.5175 39.5172 11.7714 42.8451 10.7265C45.5489 9.68161 47.4209 7.17386 49.2928 5.29304C50.9567 3.62121 52.8286 2.36733 54.7005 1.74039C56.5724 1.11345 58.4444 1.32243 59.9003 1.53141C61.3562 1.32242 62.6042 1.94936 63.6441 2.36732C65.516 3.20323 66.348 4.03915 66.556 4.03915C66.556 4.03915 65.932 2.99426 64.0601 1.94936C63.0202 1.32242 61.7722 0.904459 60.3163 0.4865C58.6524 0.0685412 56.7804 -0.140438 54.7005 0.4865C52.6206 1.11344 50.5407 2.36732 48.6688 4.24813C46.7969 5.91997 45.133 8.21875 42.8451 9.26364C40.3492 10.0996 37.4373 8.84569 34.1095 8.21875C30.5736 7.38283 26.8298 8.00977 23.294 9.47262C21.63 10.3085 19.7581 11.3534 18.3022 13.0253C17.6782 13.8612 17.0543 14.9061 16.6383 15.951C16.4303 16.9959 16.2223 18.0408 16.0143 19.0857C15.5983 23.2653 16.2223 27.4449 13.7264 30.5796C12.6864 32.0424 11.0225 33.0873 8.94262 34.1322C7.0707 35.1771 4.57482 36.013 2.91089 38.1028C2.07893 39.1477 1.45496 40.1926 0.830989 41.4465C0.207014 42.0734 -0.000976562 43.3273 -0.000976562 44.7902C-0.000976562 46.253 0.415005 47.7159 1.24697 48.7608C1.87094 50.0147 2.7029 50.8506 3.53486 51.8955C4.36682 52.9404 4.9908 53.7763 5.82276 54.6122C6.44673 55.4481 6.86271 56.493 7.27869 57.5379C8.11065 60.8816 7.0707 64.8522 6.86271 68.4049C6.65472 69.6587 6.65472 71.3306 7.0707 72.5845C7.48668 75.3012 8.94262 78.2269 11.2305 80.3167C12.4785 81.3616 13.7264 81.9885 15.3903 82.4065C16.8463 82.8245 18.3022 82.8245 19.7581 82.8245C22.462 82.8245 24.7499 83.0334 26.2058 84.7053C27.8698 86.3771 28.9097 88.8849 30.1576 91.3926C30.7816 92.6465 31.6136 93.9004 32.6535 95.1543C36.8133 99.9608 44.509 99.9608 49.9168 96.6171C51.1647 95.7812 52.2047 94.9453 53.4526 94.1094C55.5325 92.4375 57.6124 90.9747 59.9003 90.9747C62.1882 90.9747 64.4761 91.8106 66.764 92.8555C69.2599 93.9004 71.7558 94.9453 74.6676 95.3632C77.3715 95.7812 80.4914 95.5722 82.9872 94.3183C85.4831 93.0645 87.771 90.7657 88.603 88.049C89.435 85.3322 89.227 82.6155 89.435 80.3167C89.435 78.0179 89.6429 75.7192 90.6829 74.0473C91.7228 72.3755 93.5948 71.5396 95.6747 70.4947C96.7146 69.8677 97.7546 69.2408 98.7945 68.4049C99.8345 67.5689 100.458 66.524 101.082 65.4791C102.33 63.3894 102.954 60.8816 102.954 58.5828C102.954 53.7763 100.874 49.5967 98.5865 46.253C96.9226 44.7902 96.0906 43.1183 95.6747 41.4465Z" fill="#7FC723"/>
<path d="M43.6771 48.9697C41.8052 50.8505 39.9333 52.7313 38.0614 54.6121C37.2294 55.448 36.1894 56.4929 35.3575 57.3289C34.3175 58.1648 33.4856 59.0007 32.4456 59.8366C30.5737 61.5084 28.4938 63.1803 26.8299 65.2701C25.9979 66.315 25.1659 67.3599 24.75 68.8227C24.542 69.4497 24.334 70.2856 24.334 71.1215C24.334 71.9574 24.958 72.7933 25.3739 73.4203C26.4139 74.6741 28.0778 75.0921 29.5337 75.0921C30.9897 75.0921 32.4456 74.2562 33.4856 73.6292C35.3575 71.9574 36.6054 70.2856 38.2693 69.0317C41.1812 66.106 43.8851 63.1803 46.381 60.6725C67.596 38.3117 66.764 37.8938 44.7171 59.2097C42.2212 61.7174 39.3093 64.4342 36.3974 67.3599C34.7335 68.8227 33.2776 70.4946 31.8216 71.7484C30.9897 72.3754 30.3657 72.5844 29.5337 72.5844C28.7018 72.5844 27.8698 72.3754 27.4538 71.7484C26.6219 70.9125 27.4538 68.8227 29.1178 67.1509C29.3258 66.7329 29.7417 66.524 30.1577 66.106C30.3657 66.524 30.7817 66.9419 31.1977 67.3599C32.4456 68.1958 33.9015 68.1958 34.3175 67.3599C34.7335 66.5239 33.9015 65.4791 33.0696 64.8521C32.6536 64.6431 32.4456 64.4342 32.0296 64.4342C33.0696 63.3893 34.1095 62.5533 35.1495 61.7174C35.3575 62.1354 35.7735 62.3444 35.9814 62.5533C37.6454 63.8072 39.7253 63.3893 39.7253 62.7623C39.9333 61.9264 38.8933 61.0905 37.8534 60.2546C37.6454 60.0456 37.4374 60.0456 37.2294 59.8366C37.8534 59.2097 38.6853 58.5827 40.9732 56.075C41.1812 56.4929 41.3892 56.7019 41.8052 56.9109C42.8451 57.9558 44.3011 58.1648 44.717 57.5378C45.341 56.9109 44.717 55.657 43.6771 54.6121C43.4691 54.4031 43.0531 54.1941 42.8451 53.9852C42.8451 53.9852 45.965 50.8505 46.173 50.8505C46.381 51.2684 46.7969 51.4774 47.2129 51.8954C48.8769 53.1493 50.7488 53.5672 51.1648 52.7313C51.5807 52.1044 50.5408 50.6415 49.0848 49.3876C48.6689 49.1786 48.4609 48.9697 48.2529 48.7607C50.1248 46.8799 52.2047 44.7901 54.0766 42.9093C54.2846 43.1182 54.4926 43.3272 54.7006 43.3272C56.3645 44.7901 58.2364 44.5811 58.4444 43.9542C58.6524 43.1182 57.8204 42.0733 56.5725 41.0284C56.3645 40.8195 56.3645 40.8195 56.1565 40.6105C56.5725 40.1925 56.9885 39.7746 57.4045 39.3566C58.8604 37.6848 60.5243 36.0129 61.7723 34.3411C61.9803 34.5501 62.1882 34.7591 62.6042 34.968C64.0602 36.2219 65.7241 36.4309 66.1401 35.804C66.556 35.177 65.7241 33.7142 64.2682 32.4603C64.0602 32.2513 63.8522 32.2513 63.6442 32.0423C65.7241 29.7435 67.388 27.6537 69.4679 25.355C69.6759 25.5639 69.8839 25.7729 70.0919 25.9819C71.7558 27.2358 73.6277 27.6537 73.8357 26.8178C74.2517 26.1909 73.2117 24.728 71.9638 23.6831C71.7558 23.4742 71.5478 23.4742 71.3398 23.2652L71.5478 23.0562C73.0037 21.5933 74.4597 20.1305 76.1236 19.9215C77.5795 19.7125 79.2435 20.7574 79.4514 21.8023C79.6594 23.0562 78.4115 24.3101 77.1636 25.7729C56.5725 48.3427 56.3645 49.8056 78.4115 27.6538C79.0355 27.0268 79.6595 26.3999 80.2834 25.564C80.9074 24.728 81.5314 23.4742 81.3234 22.2203C81.1154 20.7574 80.2834 19.7125 79.2435 19.0856C78.2035 18.4587 76.9556 18.0407 75.4996 18.2497C72.7958 18.6676 70.9239 20.3395 69.2599 22.0113C68.844 22.4293 68.428 22.8472 68.22 23.2652C68.22 23.2652 68.22 23.2652 68.012 23.2652V23.4742C66.972 24.728 65.7241 25.9819 64.6842 27.2358C61.5643 30.7885 58.2364 34.5501 54.9086 38.1027C51.3727 41.2374 47.4209 44.9991 43.6771 48.9697Z" fill="#7FC723"/>
<path d="M37.6452 47.089C41.805 46.671 44.5089 44.5812 45.9648 42.9094C47.4207 41.2376 47.6287 39.9837 47.4207 39.7747C47.2127 39.5657 46.5888 40.6106 45.1328 42.0735C43.6769 43.3274 40.973 44.9992 37.4372 44.9992C36.8132 44.9992 36.3972 44.9992 35.7733 44.9992C36.1892 44.7902 36.3972 44.7902 36.8132 44.5812C39.5171 43.3274 43.0529 40.4016 44.5089 35.5951C45.9648 30.9976 44.9248 26.4 43.2609 23.6833L43.0529 23.4743C44.5089 24.9372 45.7568 26.609 46.5888 28.2808C48.0447 31.6245 48.2527 34.5502 47.8367 36.64C47.6287 38.7298 47.0048 39.7747 47.2127 39.7747C47.2127 39.7747 47.4207 39.5657 47.8367 39.1478C48.2527 38.7298 48.4607 37.8939 48.8767 36.849C49.5006 34.7592 49.7086 31.4155 48.4607 27.4449C46.7968 22.8474 43.0529 19.0857 38.2691 18.0408C35.5653 17.4139 32.6534 17.6229 29.7415 18.8767C26.8297 20.1306 24.5418 22.2204 22.8778 25.1461C21.4219 27.8629 20.7979 31.2065 21.2139 34.1323C21.6299 37.058 22.8778 39.7747 24.5418 42.0735C28.2856 46.2531 33.4854 47.7159 37.6452 47.089ZM25.5817 26.4C26.8297 24.1012 28.7016 22.4294 30.9895 21.3845C33.2774 20.3396 35.5653 20.1306 37.8532 20.5486C38.6851 20.7576 39.5171 20.9665 40.1411 21.3845C40.557 22.0114 40.973 23.2653 41.597 24.5192C42.429 27.027 43.0529 30.7886 42.013 34.5502C40.765 38.3119 38.0612 41.0286 35.9812 42.4914C34.9413 43.3274 34.1093 43.7453 33.2774 44.1633C30.9895 43.5363 28.7016 42.0735 27.0377 39.9837C25.5817 38.1029 24.7498 36.0131 24.3338 33.5053C23.9178 31.4155 24.3338 28.6988 25.5817 26.4Z" fill="#7FC723"/>
<path d="M71.5481 51.8955C69.2602 51.4775 66.7643 51.6865 64.4764 52.5224C62.1885 53.3584 60.1086 55.2392 58.6526 57.538C57.4047 59.8367 56.7807 62.5535 57.1967 65.0612C57.6127 67.569 58.8606 69.8678 60.3166 71.5396C63.4364 75.0922 67.8042 75.9282 71.1321 75.5102C74.4599 75.0922 76.7478 73.4204 77.9958 71.9576C79.2437 70.4947 79.4517 69.4498 79.2437 69.4498C79.0357 69.2408 78.4117 70.0767 77.1638 71.1216C75.9159 72.1665 73.8359 73.2114 71.1321 73.4204C73.212 71.9575 75.4999 69.4498 76.5398 65.6882C77.3718 62.3445 76.7478 59.2098 75.9158 57.12C76.9558 58.1649 77.7878 59.2098 78.4117 60.2547C79.6597 62.7624 79.8677 65.2702 79.6597 66.942C79.4517 68.6139 79.0357 69.4498 79.2437 69.6588C79.4517 69.6588 80.0757 69.0318 80.6996 67.36C81.3236 65.6882 81.5316 62.7624 80.2836 59.6277C79.0357 56.4931 76.1238 52.9404 71.5481 51.8955ZM73.42 56.702C74.0439 58.7918 74.4599 61.9265 73.628 65.0612C72.796 68.1959 71.1321 70.7037 69.4681 72.1665C69.0522 72.5845 68.4282 73.0025 68.2202 73.2114C66.1403 72.7935 64.0604 71.7486 62.3965 69.8678C61.3565 68.4049 60.3166 66.7331 60.1086 64.8522C59.9006 62.9714 60.3166 60.8816 61.3565 59.2098C63.2284 55.4482 67.5962 54.1943 71.1321 54.8212C71.756 55.0302 72.38 55.2392 73.004 55.4482C73.004 55.6571 73.212 56.2841 73.42 56.702Z" fill="#7FC723"/>
</g>
<defs>
<clipPath id="clip0_15_371">
<rect width="103" height="99" fill="white"/>
</clipPath>
</defs>
</svg>
