<svg width="20" height="20" viewBox="0 0 20 20" fill="none" xmlns="http://www.w3.org/2000/svg">
<circle cx="10" cy="10" r="10" fill="#7FC723"/>
<g clip-path="url(#clip0_522_22)">
<path d="M14.8818 8.74124L12.6961 10.7606L13.2123 13.6126C13.2347 13.7373 13.1807 13.8634 13.0726 13.9379C13.0116 13.9801 12.939 14.0014 12.8663 14.0014C12.8105 14.0014 12.7544 13.9888 12.7032 13.9631L10.0007 12.6166L7.2986 13.9628C7.18071 14.022 7.0372 14.0124 6.92913 13.9375C6.82106 13.863 6.76702 13.737 6.78948 13.6123L7.30562 10.7602L5.11965 8.74124C5.02421 8.65277 4.98948 8.52041 5.03088 8.40036C5.07229 8.2803 5.18211 8.19217 5.31439 8.17388L8.33509 7.75818L9.68597 5.16352C9.80421 4.93638 10.1972 4.93638 10.3154 5.16352L11.6663 7.75818L14.687 8.17388C14.8193 8.19217 14.9291 8.27997 14.9705 8.40036C15.0119 8.52075 14.9772 8.65244 14.8818 8.74124Z" fill="white"/>
</g>
<defs>
<clipPath id="clip0_522_22">
<rect width="10" height="9" fill="white" transform="translate(5 5)"/>
</clipPath>
</defs>
</svg>
