<svg width="82" height="73" viewBox="0 0 82 73" fill="none" xmlns="http://www.w3.org/2000/svg">
<g clip-path="url(#clip0_57_80)">
<path d="M72.9681 0.0622559H67.0363H55.1726C53.3601 0.0622559 61.7635 0.0622559 37.2125 0.0622559C34.7409 0.0622559 32.4341 1.05824 30.7863 2.88421C29.1386 4.54419 28.15 7.03415 28.15 9.35812V10.1881C28.15 10.6861 27.9852 15.168 28.15 14.836L27.9852 28.6138C27.9852 38.7397 27.9852 43.7196 28.15 45.8776V46.3756C27.8204 46.0436 27.4909 45.8776 27.1613 45.5456C26.0079 44.7156 24.8545 44.0516 23.5363 43.5536C21.0648 42.5576 18.0989 42.2256 15.4625 42.7236C14.1443 42.8896 12.6614 43.3876 11.508 43.8856C10.1898 44.5496 9.03638 45.0476 7.88297 45.7116L0.797761 49.6955C0.138672 50.0275 -0.0261005 50.8575 0.303444 51.5215C4.09321 59.3234 4.7523 60.9834 7.55343 66.6273C7.88297 67.4573 8.87161 67.7893 9.5307 67.4573L13.3205 65.7973C14.6386 65.1333 15.6273 64.8013 16.6159 64.8013C17.7693 64.8013 18.7579 64.9673 19.7466 65.4653C20.0761 65.6313 20.2409 65.6313 20.4057 65.9633C20.5704 66.1293 23.2068 67.7892 23.042 67.6233L26.5022 69.7812C27.6557 70.6112 28.9738 71.2752 30.4568 71.7732C33.2579 72.7692 36.2238 73.1012 39.1897 72.7692C42.1556 72.4372 44.9568 71.2752 47.2636 69.6152C48.417 68.7852 49.4056 67.7893 50.559 66.9593L53.6897 64.3033C57.6442 60.8174 61.5988 57.3314 65.5533 53.8455H67.0363L72.9681 54.0115C75.1101 54.0115 77.2521 53.1815 78.8999 51.6875C80.5476 50.1935 81.5362 48.0355 81.5362 45.7116L81.701 39.7357L81.8658 27.7838L82.0305 15.832V9.85611C82.0305 7.53215 81.0419 5.04218 79.3942 3.38221C77.7465 1.22424 75.4396 0.0622559 72.9681 0.0622559ZM56.1613 7.86414C55.667 7.36615 54.8431 7.36615 54.184 7.69814C53.1954 8.52813 52.042 9.19212 51.0533 10.0221C50.7238 10.1881 50.3942 10.5201 50.2295 10.6861C50.0647 8.19613 49.8999 5.70617 49.7352 3.21621H55.1726H59.4567C59.2919 4.87618 59.292 6.37016 59.1272 7.69814V10.3541C58.7976 10.0221 58.4681 9.85611 58.1385 9.52412C57.4795 9.02612 56.8204 8.36213 56.1613 7.86414ZM52.7011 62.6433L49.4056 65.1333C48.2522 65.9633 47.2636 66.7933 46.1102 67.4573C43.9681 68.7852 41.4965 69.6152 39.0249 69.7812C36.5534 69.9472 33.917 69.6152 31.775 68.6192C30.6216 68.1212 29.6329 67.6233 28.4795 66.7933C28.3147 66.6273 23.2068 63.3073 23.3716 63.4733C22.7125 62.9753 22.0534 62.6433 21.3943 62.3113C19.2523 61.1493 16.6159 60.9833 14.1443 61.8133C13.3205 62.1453 12.8261 62.3113 12.1671 62.6433L9.86024 63.6393C7.22388 58.3274 7.22388 58.3274 3.43412 51.1895L9.03638 47.7035C10.1898 47.0396 11.3432 46.2096 12.3318 45.7116C15.4625 44.0516 19.417 43.3876 23.2068 44.3836C25.0193 44.8816 26.5022 45.7116 28.15 46.7076C28.3147 47.7035 28.6443 48.6995 29.1386 49.6955C30.4568 52.0195 32.9284 53.8455 35.5647 54.1775C36.2238 54.3435 36.8829 54.3434 37.542 54.3434H39.1897L42.6499 54.1775L45.2863 54.0115C45.4511 54.1775 45.6158 54.3435 45.6158 54.5094C45.7806 54.8414 45.6158 55.3394 45.4511 55.6714C45.2863 56.0034 44.9568 56.3354 44.6272 56.5014C43.8033 56.8334 42.8147 57.1654 41.4965 57.3314C40.3431 57.4974 39.1897 57.6634 38.0363 57.6634C37.3772 57.6634 36.8829 57.6634 36.2238 57.6634C35.5647 57.6634 35.0704 57.6634 34.5761 57.4974C33.5875 57.3314 32.4341 56.8334 31.2806 56.3354L24.1954 53.1815C25.8432 55.3394 27.8204 56.9994 29.9625 58.6594C31.1159 59.4894 32.2693 59.9874 33.7522 60.6514C34.5761 60.9833 35.2352 60.9833 35.8943 60.9833C36.5534 60.9833 37.2125 61.1493 38.0363 60.9833C39.5193 60.9833 40.8374 60.6514 42.1556 60.3194C43.309 59.9874 44.792 59.6554 46.1102 58.4934C46.7692 57.9954 47.2636 57.1654 47.4283 56.1694C47.5931 55.3394 47.4283 54.6754 47.0988 54.0115L49.2408 53.8455C52.8658 53.6795 56.326 53.5135 59.951 53.1815C61.7635 53.1815 63.576 53.3475 65.3885 53.3475C61.1044 56.5014 56.9851 59.6554 52.7011 62.6433ZM79.7237 45.5456C79.7237 47.3716 79.0646 49.0315 77.9112 50.3595C76.7578 51.6875 74.9453 52.5175 73.1328 52.5175L67.201 52.6835C64.8942 52.6835 62.7522 52.8495 60.4454 53.0155C56.8204 52.8495 53.1954 52.6835 49.5704 52.3515L42.8147 52.0195L39.3545 51.8535H37.7068C37.2125 51.8535 36.7181 51.8535 36.2238 51.6875C34.4113 51.1895 32.7636 50.0275 31.9397 48.3675C31.4454 47.5375 31.2806 46.5416 31.2806 45.7116V42.3916L31.4454 28.6138L31.2806 14.836C31.2806 14.67 31.2806 10.8521 31.2806 11.0181V9.19212C31.2806 7.53215 31.9397 6.03817 33.0931 4.87618C34.2465 3.7142 35.7295 3.05021 37.3772 3.05021H43.309H47.9227C47.5931 6.53616 47.4283 10.0221 47.2636 13.5081C47.2636 13.8401 47.2636 14.172 47.4283 14.338C47.9227 15.002 48.7465 15.168 49.5704 14.836H49.7352C51.0533 14.006 52.042 13.3421 55.1726 11.0181C55.5022 11.3501 55.9965 11.6821 56.326 12.0141C58.9624 14.338 59.6215 14.836 59.7863 15.002C60.1158 15.168 60.4454 15.334 60.7749 15.334C61.5988 15.334 62.4226 14.504 62.4226 13.6741C62.4226 10.3541 62.4226 9.69011 62.0931 3.21621C62.2579 3.21621 73.7919 3.21621 73.1328 3.21621C74.7806 3.21621 76.2635 3.8802 77.4169 5.04218C78.4055 6.20416 79.0646 7.86414 79.0646 9.35812V15.334L79.2294 27.2859L79.3942 39.2377L79.7237 45.5456Z" fill="#76B624"/>
</g>
<defs>
<clipPath id="clip0_57_80">
<rect width="82" height="73" fill="white"/>
</clipPath>
</defs>
</svg>
